<svg width="100" height="90" viewBox="0 0 100 90" fill="none" xmlns="http://www.w3.org/2000/svg">
<path d="M92.2038 0L83.5903 1.12782L86.2331 17.6113L94.8466 16.5703L92.2038 0ZM95.2381 19.0862L86.6246 20.214L90.8335 46.6744C91.3229 49.9711 91.1271 53.3545 89.7568 56.391L81.0454 75.6507C80.2623 77.5593 78.5005 80.0752 75.6619 80.4222C73.6064 80.6825 71.4531 80.856 68.5166 81.2898C71.1594 78.2533 72.2361 74.1758 71.0615 70.1851L66.8527 71.1394L67.3421 72.7878L64.2099 74.8699L65.3844 78.6004C64.0141 80.3355 62.0565 81.55 59.7073 82.1573C57.2603 82.7646 54.8133 82.4176 52.7578 81.55L51.6811 77.8196L47.7659 77.3858L47.2765 75.8242L43.0676 76.7785C44.4379 81.3765 48.451 84.6732 53.2472 85.8878C55.0091 90.9196 60.3925 90.7461 78.4026 88.4905C83.1988 87.7964 86.2331 85.5408 89.2674 78.7739L98.9576 56.8248C100.23 54.0486 100.23 50.8386 99.5449 46.4141L95.2381 19.0862ZM58.7285 26.2001L17.3249 35.83L16.9334 38.6929L6.1665 44.1585C3.03431 45.8068 0.880928 47.889 2.34914 52.6605L0 54.3089L3.32795 65.6738L6.26438 66.3679C7.43895 70.0983 11.9415 72.0937 14.4864 72.1805L25.449 72.4407C30.0494 72.5275 34.552 72.2672 35.5308 69.2308C36.999 64.4592 37.9778 59.5142 38.8587 56.6513C39.6418 54.1353 40.1312 49.5373 43.2634 48.8433C46.3955 48.1492 49.332 51.9665 51.3875 53.7883C53.6387 55.8705 57.2603 59.7744 61.1756 63.3314C63.7205 65.5003 67.7336 63.7652 71.7467 61.6831L81.2411 56.738C83.3945 55.6102 86.2331 51.8797 85.0585 48.1492L87.3098 46.2406L83.9818 34.9624L81.1433 34.5286C79.675 29.6703 76.7386 28.8028 73.0191 28.716L60.6862 28.6293L58.7285 26.2001ZM72.0403 32.7935C75.2704 32.7068 77.228 35.5697 77.8153 37.4783L80.6539 46.9347C81.2411 49.0168 79.8708 52.4002 78.2068 53.2678L69.887 57.8658C66.1675 59.948 63.2311 59.2539 61.7628 57.7791L47.3744 43.3777C44.9273 41.0353 43.6549 37.3048 48.451 36.177C50.115 35.7432 68.6145 33.2273 71.3552 32.7935H72.0403ZM33.2795 39.8207C36.7053 39.8207 37.3905 43.1174 36.7053 45.8936L32.0071 64.6327C31.5176 66.5414 29.3643 68.45 24.9596 68.2765L15.1715 67.8427C13.2139 67.7559 10.1796 65.4135 9.59233 63.3314L6.85166 53.8751C6.1665 51.7929 6.36226 48.1492 9.88597 47.0214C12.4309 46.1539 29.9516 40.428 31.7134 39.9942C32.3007 39.9075 32.7901 39.8207 33.2795 39.8207ZM44.0464 51.4459C42.8718 51.7062 41.11 58.8201 38.8587 68.3632L57.7497 63.9387C50.6044 56.6513 45.221 51.1857 44.0464 51.4459Z" fill="black"/>
</svg>
